<svg width="25" height="25" viewBox="0 0 25 25" fill="none" xmlns="http://www.w3.org/2000/svg">
<path fill-rule="evenodd" clip-rule="evenodd" d="M19.9074 19.5699C16.8512 22.6263 12.3258 23.2867 8.62245 21.574C8.07574 21.3539 7.62751 21.176 7.2014 21.176C6.01452 21.183 4.53719 22.3339 3.76939 21.567C3.00158 20.7991 4.15329 19.3206 4.15329 18.1266C4.15329 17.7004 3.98244 17.2602 3.76235 16.7124C2.04886 13.0096 2.71014 8.48269 5.76629 5.42721C9.66763 1.52443 16.006 1.52443 19.9074 5.4262C23.8158 9.33501 23.8087 15.6681 19.9074 19.5699Z" stroke="#3B3940" stroke-width="1.5" stroke-linecap="round" stroke-linejoin="round"/>
<path d="M16.7754 12.9131H16.7844" stroke="#3B3940" stroke-width="2" stroke-linecap="round" stroke-linejoin="round"/>
<path d="M12.7664 12.9131H12.7754" stroke="#3B3940" stroke-width="2" stroke-linecap="round" stroke-linejoin="round"/>
<path d="M8.75743 12.9131H8.76643" stroke="#3B3940" stroke-width="2" stroke-linecap="round" stroke-linejoin="round"/>
</svg>
