<svg width="26" height="25" viewBox="0 0 26 25" fill="none" xmlns="http://www.w3.org/2000/svg">
<path d="M9.99053 21.2714V18.2047C9.99051 17.4246 10.6264 16.7908 11.4143 16.7856H14.3004C15.0921 16.7856 15.7338 17.4209 15.7338 18.2047V18.2047V21.2809C15.7336 21.9432 16.2676 22.4845 16.9364 22.5H18.8604C20.7784 22.5 22.3333 20.9607 22.3333 19.0618V19.0618V10.3378C22.3231 9.59083 21.9688 8.88935 21.3713 8.43303L14.791 3.1853C13.6382 2.27157 11.9995 2.27157 10.8467 3.1853L4.29534 8.44256C3.69557 8.89702 3.3407 9.59967 3.33331 10.3474V19.0618C3.33331 20.9607 4.88819 22.5 6.80622 22.5H8.73028C9.41567 22.5 9.97129 21.9499 9.97129 21.2714V21.2714" stroke="#3B3940" stroke-width="1.5" stroke-linecap="round" stroke-linejoin="round"/>
</svg>
