<svg width="20" height="20" viewBox="0 0 20 20" fill="none" xmlns="http://www.w3.org/2000/svg">
<path d="M13 8.99985C13 9.7955 12.6839 10.5586 12.1213 11.1212C11.5587 11.6838 10.7957 11.9998 10 11.9998C9.20436 11.9998 8.4413 11.6838 7.87869 11.1212C7.31608 10.5586 7.00001 9.7955 7.00001 8.99985C7.00001 8.2042 7.31608 7.44113 7.87869 6.87853C8.4413 6.31592 9.20436 5.99985 10 5.99985C10.7957 5.99985 11.5587 6.31592 12.1213 6.87853C12.6839 7.44113 13 8.2042 13 8.99985ZM12 8.99985C12 8.46941 11.7893 7.96071 11.4142 7.58563C11.0391 7.21056 10.5304 6.99985 10 6.99985C9.46957 6.99985 8.96087 7.21056 8.58579 7.58563C8.21072 7.96071 8.00001 8.46941 8.00001 8.99985C8.00001 9.53028 8.21072 10.039 8.58579 10.4141C8.96087 10.7891 9.46957 10.9998 10 10.9998C10.5304 10.9998 11.0391 10.7891 11.4142 10.4141C11.7893 10.039 12 9.53028 12 8.99985ZM14.95 13.9548C16.2629 12.6413 17.0004 10.8601 17.0004 9.00285C17.0004 7.14563 16.2629 5.36443 14.95 4.05085C14.3001 3.40052 13.5285 2.88463 12.6791 2.53265C11.8298 2.18068 10.9194 1.99951 10 1.99951C9.08062 1.99951 8.17024 2.18068 7.3209 2.53265C6.47156 2.88463 5.69989 3.40052 5.05001 4.05085C3.7371 5.36443 2.99957 7.14563 2.99957 9.00285C2.99957 10.8601 3.7371 12.6413 5.05001 13.9548L6.57101 15.4538L8.61401 17.4388L8.74701 17.5568C9.52201 18.1848 10.657 18.1448 11.387 17.4388L13.822 15.0688L14.95 13.9548ZM5.75501 4.75585C6.31238 4.19823 6.97415 3.75588 7.70252 3.45409C8.43089 3.15229 9.21159 2.99696 10 2.99696C10.7884 2.99696 11.5691 3.15229 12.2975 3.45409C13.0259 3.75588 13.6876 4.19823 14.245 4.75585C15.3397 5.8513 15.9691 7.32716 16.0019 8.8755C16.0347 10.4238 15.4684 11.925 14.421 13.0658L14.245 13.2498L12.924 14.5538L10.694 16.7218L10.6 16.8018C10.4271 16.9321 10.2165 17.0026 10 17.0026C9.78352 17.0026 9.57291 16.9321 9.40001 16.8018L9.30701 16.7218L6.32701 13.8168L5.75501 13.2498L5.57901 13.0668C4.53165 11.926 3.96529 10.4248 3.99808 8.8765C4.03087 7.32816 4.66029 5.8513 5.75501 4.75585Z" fill="#646464"/>
</svg>
