<svg width="576" height="341" viewBox="0 0 576 341" fill="none" xmlns="http://www.w3.org/2000/svg">
<path d="M504.364 162.074C517.465 162.074 529.424 159.031 540.285 152.946C551.146 146.86 559.724 138.366 566.063 127.463C572.444 116.518 575.614 104.263 575.614 90.6132C575.614 76.9634 572.444 64.7505 566.19 53.8898C565.26 52.284 564.288 50.7204 563.232 49.2413C562.429 47.9735 561.753 46.6212 561.119 45.2689C559.175 40.5781 558.076 35.5915 557.02 30.5627C555.921 25.5338 554.991 20.4204 553.301 15.5606C552.498 13.0673 551.484 10.574 550.174 8.29197C548.652 5.67189 546.708 3.22085 544.088 1.65725C541.426 0.0936522 537.918 -0.582497 534.96 0.600765C533.523 1.15014 532.298 1.99532 531.157 3.05181C530.143 4.02377 529.255 5.16478 528.452 6.30578C526.804 8.6723 525.41 11.2079 523.93 13.6589C522.494 16.11 521.057 18.4765 519.451 20.8007C514.591 19.8288 509.562 19.3639 504.364 19.3639C499.166 19.3639 494.011 19.871 489.109 20.843C486.193 16.7016 483.784 12.1798 481.079 7.91163C479.6 5.50285 477.868 3.13633 475.459 1.57273C472.881 -0.117645 469.543 -0.41346 466.627 0.643024C460.922 2.71373 457.837 8.41875 455.808 13.7857C453.949 18.6033 452.935 23.6744 451.878 28.661C450.822 33.6898 449.808 38.761 447.99 43.6208C447.821 44.0011 447.695 44.4237 447.526 44.8463C447.441 44.9731 447.399 45.1421 447.314 45.3112C446.638 46.7903 445.92 48.2271 445.032 49.6216C445.032 49.6639 444.99 49.7062 444.99 49.7484C444.06 51.1007 443.173 52.453 442.328 53.8898C435.904 64.7505 432.693 77.0057 432.693 90.6132C432.693 104.221 435.904 116.518 442.328 127.463C448.709 138.366 457.414 146.86 468.317 152.946C479.22 159.031 491.222 162.074 504.364 162.074ZM477.445 61.0317C484.122 53.763 493.081 50.1287 504.364 50.1287C515.648 50.1287 524.353 53.8053 531.03 61.1584C537.707 68.5116 541.088 78.3157 541.088 90.6132C541.088 102.911 537.707 112.588 531.03 120.026C524.353 127.421 515.479 131.14 504.364 131.14C493.25 131.14 484.122 127.463 477.445 120.11C470.768 112.757 467.43 102.953 467.43 90.6132C467.43 78.2735 470.768 68.3425 477.445 61.0317Z" fill="#455CFB"/>
<path d="M14.749 160.723H72.6021C78.2648 160.723 82.8711 156.116 82.8711 150.454V144.833C82.8711 139.17 78.2648 134.564 72.6021 134.564H48.6833C43.0205 134.564 38.4143 129.958 38.4143 124.295V31.6626C38.4143 25.9998 33.808 21.3936 28.1452 21.3936H14.749C9.08625 21.3936 4.47998 25.9998 4.47998 31.6626V150.454C4.47998 156.116 9.08625 160.723 14.749 160.723Z" fill="#455CFB"/>
<path d="M117.862 21.3516H104.465C98.7941 21.3516 94.1965 25.9492 94.1965 31.6206V150.454C94.1965 156.125 98.7941 160.723 104.465 160.723H117.862C123.533 160.723 128.131 156.125 128.131 150.454V31.6206C128.131 25.9492 123.533 21.3516 117.862 21.3516Z" fill="#455CFB"/>
<path d="M158.093 160.723H171.489C177.152 160.723 181.758 156.116 181.758 150.454V91.0793C181.758 86.2194 188.055 84.3178 190.759 88.3747L235.512 156.116C237.414 158.99 240.626 160.723 244.091 160.723H262.22C267.883 160.723 272.489 156.116 272.489 150.454V31.6626C272.489 25.9998 267.883 21.3936 262.22 21.3936H248.824C243.161 21.3936 238.555 25.9998 238.555 31.6626V91.8822C238.555 96.573 232.427 98.4324 229.849 94.5023L184.801 26.0421C182.899 23.1684 179.688 21.3936 176.222 21.3936H158.093C152.43 21.3936 147.824 25.9998 147.824 31.6626V150.454C147.824 156.116 152.43 160.723 158.093 160.723Z" fill="#455CFB"/>
<path d="M320.621 152.692C331.397 158.735 343.695 161.736 357.429 161.736C369.093 161.736 379.531 159.496 388.786 154.974C398.04 150.495 405.689 144.579 411.732 137.31C417.353 130.506 421.452 123.153 424.03 115.293C424.368 114.236 424.537 113.138 424.537 111.997V92.3883C424.537 86.7255 419.931 82.1192 414.268 82.1192H360.979C355.316 82.1192 350.71 86.7255 350.71 92.3883V96.8255C350.71 102.488 355.316 107.095 360.979 107.095H374.882C384.475 107.095 389.039 119.477 381.306 125.224C381.263 125.266 381.179 125.308 381.137 125.351C375.389 129.577 368.332 131.689 360.007 131.689C347.836 131.689 338.286 128.097 331.313 120.871C324.382 113.645 320.875 103.629 320.875 90.7824C320.875 78.7385 324.171 69.1034 330.806 61.9193C337.398 54.6929 346.23 51.1009 357.218 51.1009C363.557 51.1009 369.093 52.3264 373.784 54.7774C377.037 56.4678 379.784 58.7076 382.024 61.4967C383.968 63.9477 386.884 65.3845 390.011 65.3845H406.999C414.86 65.3845 419.888 56.8481 416.001 50.0021C411.901 42.7758 406.365 36.7327 399.393 31.8306C387.94 23.759 373.868 19.7021 357.218 19.7021C343.441 19.7021 331.228 22.7026 320.494 28.7457C309.761 34.7465 301.393 43.1561 295.392 53.9745C289.349 64.7506 286.349 77.0481 286.349 90.7824C286.349 104.517 289.349 116.772 295.392 127.506C301.393 138.24 309.803 146.607 320.621 152.608V152.692Z" fill="#455CFB"/>
<path d="M69.6434 229.687C76.1091 229.687 81.8987 231.208 87.0121 234.251C90.6041 236.406 93.6045 239.195 96.0133 242.703C98.084 245.661 101.338 247.563 104.93 247.563H120.524C128.68 247.563 133.793 238.815 129.905 231.673C125.595 223.855 119.805 217.221 112.537 211.811C100.746 203.064 86.5895 198.711 70.066 198.711C56.5853 198.711 44.4991 201.711 33.8498 207.754C23.2004 213.755 14.8753 222.165 8.91673 232.983C2.95816 243.759 0 256.057 0 269.791C0 283.525 2.95816 295.781 8.91673 306.515C14.8753 317.248 23.1581 325.616 33.8498 331.617C44.4991 337.66 56.5853 340.66 70.066 340.66C86.5895 340.66 100.746 336.35 112.537 327.644C119.805 322.277 125.595 315.727 129.905 307.909C133.835 300.767 128.68 292.02 120.524 292.02H104.93C101.338 292.02 98.084 293.921 96.0133 296.879C93.5622 300.387 90.5618 303.218 87.0121 305.331C81.8987 308.374 76.1091 309.895 69.6434 309.895C59.2054 309.895 50.7112 306.261 44.2456 298.992C37.7376 291.724 34.5259 282.004 34.5259 269.791C34.5259 257.578 37.7799 247.901 44.2456 240.632C50.7112 233.364 59.2054 229.729 69.6434 229.729V229.687Z" fill="#455CFB"/>
<path d="M215.058 313.446H191.942C186.068 313.446 181.251 308.671 181.251 302.754V210.967C181.251 205.093 176.475 200.275 170.559 200.275H157.966C152.092 200.275 147.274 205.051 147.274 210.967V328.997C147.274 334.871 152.049 339.689 157.966 339.689H215.016C220.89 339.689 225.707 334.914 225.707 328.997V324.138C225.707 318.264 220.932 313.446 215.016 313.446H215.058Z" fill="#455CFB"/>
<path d="M326.834 283.399C322.946 279.511 316.608 279.511 312.72 283.399L299.408 296.711V210.967C299.408 205.093 294.633 200.317 288.716 200.317H276.123C270.207 200.317 265.431 205.093 265.431 210.967V296.331L252.077 282.977C248.19 279.089 241.893 279.089 238.005 282.977L233.61 287.414C229.722 291.26 229.722 297.598 233.61 301.486L268.432 336.308C268.685 336.562 268.939 336.773 269.192 337.026C271.052 338.675 273.503 339.647 276.165 339.647H289.223C289.477 339.647 289.646 339.604 289.815 339.604C292.224 339.562 294.59 338.59 296.492 336.731L331.314 301.909C335.202 298.021 335.202 291.724 331.314 287.837L326.919 283.399H326.834Z" fill="#455CFB"/>
<path d="M436.032 206.065C428.341 202.219 418.959 200.317 407.845 200.317H363.515C357.641 200.317 352.823 205.093 352.823 211.009V329.039C352.823 334.913 357.599 339.731 363.515 339.731H376.108C381.982 339.731 386.8 334.956 386.8 329.039V300.345C386.8 294.471 391.575 289.654 397.492 289.654H407.845C419.213 289.654 428.764 287.625 436.413 283.484C444.104 279.385 449.766 273.975 453.485 267.298C457.204 260.621 459.064 253.226 459.064 245.155C459.064 236.407 457.162 228.673 453.316 221.912C449.471 215.15 443.723 209.868 436.032 206.022V206.065ZM419.762 258.086C416.593 261.129 411.775 262.65 405.267 262.65H397.492C391.618 262.65 386.8 257.875 386.8 251.958V238.351C386.8 232.477 391.575 227.659 397.492 227.659H405.267C411.733 227.659 416.593 229.181 419.762 232.223C422.932 235.266 424.538 239.576 424.538 245.112C424.538 250.648 422.932 254.959 419.762 258.001V258.086Z" fill="#455CFB"/>
<path d="M552.034 265.608C546.413 262.819 539.103 259.903 530.101 256.861C521.1 253.945 514.465 251.24 510.239 248.704C506.013 246.211 503.9 242.704 503.9 238.182C503.9 234.083 505.168 230.956 507.662 228.758C510.197 226.561 513.493 225.462 517.593 225.462C522.368 225.462 526.256 226.73 529.298 229.35C530.82 230.66 532.003 232.181 532.806 233.956C534.623 237.802 538.807 239.999 543.075 239.999H558.035C565.346 239.999 570.713 232.773 568.177 225.927C565.684 219.334 561.585 213.798 555.88 209.319C546.498 201.966 534.116 198.289 518.776 198.289C503.436 198.289 491.434 201.966 482.052 209.319C472.671 216.672 467.938 226.814 467.938 239.788C467.938 248.535 470.008 255.593 474.108 261.044C478.207 266.496 483.109 270.595 488.814 273.342C494.519 276.131 501.83 278.92 510.831 281.667C517.043 283.526 521.861 285.174 525.241 286.611C528.622 288.048 531.454 289.907 533.778 292.189C536.102 294.429 537.243 297.303 537.243 300.726C537.243 304.825 535.764 308.037 532.89 310.361C529.975 312.685 526.002 313.826 520.973 313.826C515.944 313.826 512.099 312.474 509.056 309.769C507.535 308.417 506.309 306.769 505.422 304.783C503.605 300.768 499.928 297.937 495.533 297.937H480.278C473.009 297.937 467.642 305.121 470.135 311.924C471.361 315.348 473.093 318.475 475.206 321.348C480.024 327.814 486.49 332.716 494.561 336.055C502.633 339.351 511.761 340.999 521.945 340.999C532.13 340.999 541.469 339.097 549.16 335.252C556.852 331.406 562.683 326.25 566.74 319.785C570.797 313.319 572.783 306.093 572.783 298.148C572.783 289.823 570.713 282.977 566.613 277.694C562.514 272.412 557.654 268.355 552.034 265.566V265.608Z" fill="#455CFB"/>
</svg>
